<svg width="22" height="22" viewBox="0 0 22 22" fill="none" xmlns="http://www.w3.org/2000/svg">
<g clip-path="url(#clip0_59_297)">
<path fill-rule="evenodd" clip-rule="evenodd" d="M10.9993 20.0002L9.04836 20.8081L7.55511 19.3151L5.44356 19.3149L4.6353 17.3642L2.68456 16.5559L2.68434 14.4444L1.19141 12.9511L1.99926 11.0002L1.19141 9.04933L2.68434 7.55608L2.68456 5.44453L4.6353 4.63627L5.44356 2.68553L7.55511 2.68531L9.04836 1.19238L10.9993 2.00023L12.9502 1.19238L14.4435 2.68531L16.555 2.68553L17.3633 4.63627L19.314 5.44453L19.3142 7.55608L20.8072 9.04933L19.9993 11.0002L20.8072 12.9511L19.3142 14.4444L19.314 16.5559L17.3633 17.3642L16.555 19.3149L14.4435 19.3151L12.9502 20.8081L10.9993 20.0002Z" fill="#F0F0F5" stroke="#2D2D32" stroke-linecap="round" stroke-linejoin="round"/>
<path d="M6.96074 11.2123C6.70382 10.9584 6.28726 10.9584 6.03034 11.2123C5.77342 11.4662 5.77342 11.8778 6.03034 12.1317L9.10051 15.1658C9.35744 15.4197 9.77399 15.4197 10.0309 15.1658L16.1713 9.09767C16.4282 8.84377 16.4282 8.43212 16.1713 8.17822C15.9143 7.92432 15.4978 7.92432 15.2409 8.17822L9.56572 13.7866L6.96074 11.2123Z" fill="#2D2D32" stroke="#2D2D32" stroke-width="0.506465"/>
</g>
<defs>
<clipPath id="clip0_59_297">
<rect width="22" height="22" fill="white"/>
</clipPath>
</defs>
</svg>
